 http://img7.imageshack.us/img7/2140/poster1bx.jpg


[i][b]Aka: Khon fai bin
Cast: Dan Chupong, Leo Putt, Panna Rittikrai, Samart Payakarun, Kanyapak Suworakood
Directed: Chalerm Wongpim
Genre: Action/Comedy
Runtime: 1h 38mn
Also Known As: Khon fai bin
Country: Thailand
Language: Thai
Subtitles: English (idx/sub)
IMDB: [url]http://www.imdb.com/title/tt0963915/[/url]

Plot:
Zieng (Dan Chupong) has carried a chip on his shoulder since he watched his parents get murdered by a mysterious killer. Desperate to get revenge, Zieng follows his only clue to the murderer's identity and becomes a one-man army out to stop the dangerous crime of cattle rustling.

DYNAMITE WARRIOR is a supernatural, action packed movie with high-grade special effects and the kind of raw action scenes the world is coming to expect from Thailand


General Info:
Complete name : Dynamite.Warrior.2006.DVDRip.H264.AAC-D34dLy.mp4
Format : MPEG-4
Format profile : Base Media
Codec ID : isom
File size : 351 MiB
Duration : 1h 38mn
Overall bit rate : 497 Kbps

Video Info:
ID : 1
Format : AVC
Format/Info : Advanced Video Codec
Format profile : High@L3.2
Format settings, CABAC : Yes
Format settings, ReFrames : 3 frames
Codec ID : avc1
Codec ID/Info : Advanced Video Coding
Duration : 1h 38mn
Bit rate mode : Variable
Bit rate : 448 Kbps
Maximum bit rate : 2 102 Kbps
Width : 432 pixels
Height : 240 pixels
Display aspect ratio : 16:9
Frame rate mode : Constant
Frame rate : 25.000 fps
Resolution : 8 bits
Colorimetry : 4:2:0
Scan type : Progressive
Bits/(Pixel*Frame) : 0.173
Stream size : 315 MiB (90%)
Title : Imported with GPAC 0.4.6-DEV (build 1)
Writing library : x264 core 80 r1376M 3feaec2

Audio Info:
ID : 2
Format : AAC
Format/Info : Advanced Audio Codec
Format version : Version 4
Format profile : LC
Format settings, SBR : Yes
Format settings, PS : No
Codec ID : 40
Duration : 1h 38mn
Bit rate mode : Variable
Bit rate : 48.0 Kbps
Maximum bit rate : 68.1 Kbps
Channel(s) : 2 channels
Channel positions : Front: L R
Sampling rate : 48.0 KHz
Stream size : 33.9 MiB (10%)



Screenshots:[/i][/b]

 
http://img43.imageshack.us/img43/9013/81720079.jpg 
http://img42.imageshack.us/img42/2653/57053602.jpg 
http://img337.imageshack.us/img337/2496/aaacb.jpg 
http://img42.imageshack.us/img42/2738/aaaawx.jpg 
http://img210.imageshack.us/img210/9745/aaaaabf.jpg 
http://img132.imageshack.us/img132/9122/dynamitewarrior2006dvdr.jpg








